<svg width="500" height="277" viewBox="0 0 500 277" fill="none" xmlns="http://www.w3.org/2000/svg">
<path d="M31.1664 276.862C31.1664 276.862 -30.1576 211.019 20.7956 139.736C66.0044 76.4878 118.714 80.8114 157.385 106.478C173.856 117.409 221.344 107.825 261.761 43.4679C316.88 -44.2974 507.941 8.93249 473.105 143.962C456.246 209.306 524.411 211.682 489.679 277L31.1664 276.862Z" fill="#FCECDB"/>
<path d="M474.429 276.126H454.999C453.958 275.243 455.72 273.237 457.561 273.103C458.36 273.042 459.371 273.21 460.526 273.454C460.793 269.902 462.32 253.938 468.075 254.579C474.545 255.298 468.075 261.61 466.246 265.347C464.891 268.115 463.461 272.085 462.808 273.958C463.334 274.072 463.878 274.183 464.433 274.285C465.29 271.652 468.481 262.795 472.539 263.311C477.304 263.915 475.389 267.466 472.012 269.575C469.534 271.125 466.492 273.328 465.046 274.392C466.271 274.592 467.549 274.727 468.846 274.697C472.175 274.618 473.799 275.599 474.429 276.126Z" fill="#82B378"/>
<path d="M50.8934 275.434C50.1216 274.222 47.7994 271.076 44.7063 271.493C41.3362 271.946 48.4284 274.168 50.5997 275.444C50.1175 275.45 49.7028 275.411 49.3985 275.303C47.9468 274.786 45.4607 275.778 44.6659 276.126H58.4857C58.3902 275.796 58.1411 275.256 57.4975 274.862C57.2706 274.724 56.8144 274.704 56.2255 274.749C57.0474 273.78 57.6179 270.686 55.3304 271.482C53.6592 272.064 53.6637 273.955 53.8279 275.073C53.4722 275.129 53.1117 275.185 52.7556 275.237C52.0676 271.73 49.6339 261.453 44.7011 261.179C39.7009 260.901 48.9417 271.837 52.0186 275.335C51.6243 275.382 51.2447 275.418 50.8934 275.434Z" fill="#82B378"/>
<path d="M196.348 252.207L194.845 258.528L192.851 266.911H186.62L186.249 258.881L185.962 252.687L196.348 252.207Z" fill="#FFB27D"/>
<path d="M216.092 114.618C216.092 114.618 221.022 109.342 224.227 113.479C227.433 117.616 230.986 120.408 235.905 123.59C240.824 126.771 231.558 151.708 225.396 151.196C219.235 150.683 194.093 131.023 216.092 114.618Z" fill="#BC3F3F"/>
<path d="M191.543 112.109C192.773 111.19 204.105 107.299 215.153 111.125C226.2 114.951 206.595 125.609 206.595 125.609L200.242 125.883L191.543 112.109Z" fill="#4A75CB"/>
<path d="M184.156 276.12C184.156 276.12 184.156 273.069 184.591 272.055C185.026 271.041 186.62 266.911 186.62 266.911H192.851C192.851 266.911 194.01 270.679 194.083 271.91C194.155 273.142 194.083 276.12 194.083 276.12H184.156Z" fill="#233862"/>
<path d="M223.719 276.12C223.719 276.12 223.719 273.069 223.284 272.055C222.849 271.041 221.255 266.911 221.255 266.911H215.024C215.024 266.911 213.865 270.679 213.792 271.91C213.72 273.142 213.792 276.12 213.792 276.12H223.719Z" fill="#233862"/>
<path d="M198.756 104.905C198.756 104.905 198.537 111.697 197.667 114.74L190.786 129.572L216.688 123.417L210.511 114.881C210.511 114.881 208.646 105.774 209.624 102.405C210.602 99.0359 198.756 104.905 198.756 104.905Z" fill="#FFB27D"/>
<path d="M198.718 105.842C198.718 105.84 200.766 110.773 204.624 110.664C208.483 110.556 209.36 106.193 209.36 106.193L198.718 105.842Z" fill="#ED985F"/>
<path d="M196.415 101.85C196.415 101.85 195.169 95.63 194.3 93.7463C193.43 91.8624 192.706 83.458 202.342 83.023C202.342 83.023 206.037 83.458 208.066 82.2263C208.066 82.2263 208.066 83.458 207.559 83.8925C207.559 83.8925 210.892 83.0956 213.5 85.9938C216.108 88.8921 211.761 99.0359 211.979 101.426L196.415 101.85Z" fill="black"/>
<path d="M204.182 108.759C201.387 108.71 196.241 104.987 196.241 100.378V93.1843C196.241 91.5011 197.415 90.1238 198.849 90.1238H209.515C210.949 90.1238 212.123 91.5011 212.123 93.1843V99.9704C212.123 104.804 207.388 108.816 204.182 108.759Z" fill="#FFB27D"/>
<path d="M196.242 97.0252C196.242 97.0252 196.256 92.7029 199.68 92.0382C203.103 91.3738 210.765 94.145 211.852 90.9932C212.939 87.8414 197.042 87.8959 196.242 89.9063C195.441 91.9168 196.242 97.0252 196.242 97.0252Z" fill="black"/>
<path d="M208.178 171.93C209.893 166.592 209.858 194.024 202.974 224.88C201.924 229.589 199.571 240.944 197.883 251.935H183.779C183.584 243.06 182.633 230.671 182.034 221.392C180.155 192.306 184.937 170.478 184.937 170.478L208.178 171.93Z" fill="#2B478B"/>
<path d="M226.276 221.391C226.121 230.284 224.315 242.098 224.151 250.758H209.842C208.881 244.472 207.354 237.999 206.257 232.777C205.477 229.069 204.913 225.992 204.921 224.06C204.938 220.282 202.548 209.391 201.125 199.786C201.123 199.772 201.121 199.759 201.119 199.747C201.064 199.378 201.011 199.009 200.959 198.644C199.053 185.143 199.725 171.929 199.725 171.929L223.868 170.421C223.868 170.421 226.69 197.673 226.276 221.391Z" fill="#2B478B"/>
<path d="M183.025 181.665C183.025 181.665 188.456 188.246 203.214 187.297C217.971 186.346 225.012 183.778 225.012 183.778L183.025 181.665Z" fill="#233862"/>
<path d="M225.011 183.779C220.191 184.434 187.397 186.138 183.025 181.666C178.653 177.191 190.162 116.17 190.162 116.17C190.162 116.17 191.465 115.793 193.665 115.379C194.785 115.168 196.138 114.948 197.67 114.764C197.688 115.239 198.067 122.433 204.04 125.405C204.04 125.405 211.213 122.532 210.51 114.88C210.502 114.79 210.492 114.704 210.48 114.618C211.437 114.721 212.406 114.854 213.38 115.022C215.348 115.36 217.34 115.838 219.315 116.492C219.315 116.492 229.832 183.125 225.011 183.779Z" fill="#050B17"/>
<path d="M183.302 152.275C183.107 152.528 184.415 154.406 186.259 156.821C190.054 161.78 196.123 168.998 196.123 168.998C196.042 171.445 195.7 173.023 195.7 173.023C187.363 169.083 181.725 165.399 177.989 162.439C172.735 158.277 171.229 155.547 171.229 155.547C179.653 119.912 190.46 116.201 190.46 116.201L193.987 137.675C193.987 137.675 183.892 151.502 183.302 152.275Z" fill="#16233F"/>
<path d="M213.38 115.022L211.208 121.63L208.312 125.883L204.155 128.137L200.242 125.883L193.665 115.378C194.786 115.167 196.139 114.948 197.67 114.764C197.689 115.239 198.068 122.433 204.04 125.405C204.04 125.405 211.214 122.531 210.511 114.88C210.503 114.79 210.492 114.704 210.48 114.618C211.437 114.721 212.407 114.854 213.38 115.022Z" fill="#EE9849"/>
<path d="M196.124 168.999C196.122 169.068 196.12 169.136 196.116 169.203C196.098 169.654 196.071 170.077 196.038 170.46C195.829 170.749 195.598 171.022 195.345 171.276C194.962 171.663 194.548 171.989 194.126 172.264C193.915 172.163 193.704 172.059 193.497 171.956C186.356 168.421 181.388 165.131 177.989 162.44C180.145 161.776 183.167 160.259 186.259 156.82C190.053 161.78 196.124 168.999 196.124 168.999Z" fill="#FFB27D"/>
<path d="M237.53 154.236C237.53 154.236 236.076 156.995 230.903 161.257C227.223 164.287 221.657 168.079 213.397 172.178C213.397 172.178 213.025 170.606 212.897 168.162C212.897 168.162 218.827 160.829 222.526 155.798C224.324 153.348 225.595 151.446 225.397 151.196C224.927 150.605 218.599 142.282 215.775 138.57C214.956 137.492 214.434 136.803 214.434 136.803L218.008 115.691C218.008 115.691 228.425 118.769 237.53 154.236Z" fill="#16233F"/>
<path d="M230.902 161.257C227.545 164.02 222.617 167.418 215.507 171.108C215.331 171.198 215.153 171.29 214.973 171.383C214.064 170.286 213.513 168.98 213.177 167.816C213.296 167.669 213.45 167.474 213.638 167.242C215.341 165.117 219.621 159.747 222.525 155.797C225.682 159.177 228.734 160.634 230.902 161.257Z" fill="#FFB27D"/>
<path d="M210.48 114.618C205.696 114.106 201.207 114.339 197.67 114.763C197.667 114.747 197.667 114.739 197.667 114.739C197.667 114.739 209.525 107.405 210.48 114.618Z" fill="#FFB27D"/>
<path d="M198.588 135.358H198.344L198.165 123.929H198.78L198.588 135.358Z" fill="#BBD4FF"/>
<path d="M198.32 135.061C198.098 135.396 197.6 136.501 197.931 136.617C198.262 136.734 198.842 136.741 198.998 136.585C199.153 136.43 198.739 134.43 198.32 135.061Z" fill="#EE9849"/>
<path d="M209.812 135.358H209.569L209.39 123.929H210.005L209.812 135.358Z" fill="#BBD4FF"/>
<path d="M209.544 135.061C209.323 135.396 208.824 136.501 209.155 136.617C209.486 136.734 210.066 136.741 210.222 136.585C210.377 136.43 209.963 134.43 209.544 135.061Z" fill="#EE9849"/>
<path d="M200.242 125.883L190.162 116.17C190.162 116.17 187.893 114.559 191.48 112.15C195.066 109.742 200.242 125.883 200.242 125.883Z" fill="#4A75CB"/>
<path d="M208.311 125.883L218.391 116.17C218.391 116.17 220.66 114.559 217.073 112.15C213.486 109.742 208.311 125.883 208.311 125.883Z" fill="#4A75CB"/>
<path d="M220.961 173.17C218.997 173.336 217.36 172.844 216.095 171.714C215.882 171.524 215.687 171.321 215.507 171.108C214.511 169.943 213.951 168.478 213.638 167.242C213.277 165.83 213.238 164.719 213.238 164.696L213.23 164.411H196.95L196.96 164.715C197.023 166.465 196.741 167.967 196.116 169.203C195.806 169.822 195.411 170.374 194.931 170.857C194.488 171.304 193.998 171.665 193.496 171.956C191.318 173.218 188.893 173.169 188.862 173.169L188.561 173.159V180.038H221.279V173.143L220.961 173.17Z" fill="#678FE5"/>
<path d="M225.397 151.196C225.397 151.196 216.322 139.288 223.506 135.821C226.357 134.445 230.372 150.786 228.22 152.323C226.067 153.86 222.526 155.797 222.526 155.797L225.397 151.196Z" fill="#678FE5"/>
<path d="M184.346 149.233C184.346 149.233 187.499 134.281 184.732 135.821C181.965 137.36 177.866 150.786 180.018 152.323C182.17 153.86 185.712 155.797 185.712 155.797L184.346 149.233Z" fill="#678FE5"/>
<path d="M224.124 151.161C219.98 146.016 218.432 137.663 218.643 129.042C218.802 122.569 219.689 116.727 219.747 116.523L223.146 119.17C223.133 119.219 221.196 122.76 221.045 129.059C220.908 134.82 220.636 139.205 223.891 149.232L224.124 151.161Z" fill="#BC3F3F"/>
<path d="M192.659 255.116L185.357 255.111C184.711 255.184 183.699 254.238 183.699 252.885C183.699 252.885 183.684 249.642 183.469 249.065C182.53 246.537 183.927 246.401 185.28 246.401H198.602C199.955 246.401 197.883 250.582 197.883 251.934L198.363 253.708C198.363 255.061 194.011 255.116 192.659 255.116Z" fill="#233862"/>
<path d="M194.845 258.528L192.851 266.911H186.62L186.249 258.881C187.177 259.221 190.303 260.092 194.845 258.528Z" fill="#233862"/>
<path d="M211.539 252.207L213.042 258.433L215.036 266.69H221.267L221.637 258.78L221.925 252.68L211.539 252.207Z" fill="#FFB27D"/>
<path d="M215.229 255.116L222.531 255.111C223.177 255.184 224.188 254.238 224.188 252.885C224.188 252.885 224.204 249.642 224.418 249.065C225.357 246.537 223.96 246.401 222.607 246.401H209.285C207.932 246.401 210.004 250.582 210.004 251.934L209.525 253.708C209.525 255.061 213.876 255.116 215.229 255.116Z" fill="#233862"/>
<path d="M213.042 258.528L215.036 266.911H221.267L221.638 258.881C220.709 259.221 217.584 260.092 213.042 258.528Z" fill="#233862"/>
<path d="M109.56 89.0412C109.069 88.5076 107.973 87.903 106.529 87.41C109.065 86.2692 111.222 84.9248 109.73 84.1031C109.085 83.7476 108.315 83.7976 107.503 84.0928C108.752 82.8297 109.353 81.7423 108.136 81.4571C106.286 81.0243 104.36 83.4083 103.015 85.6064C103.887 83.7213 104.337 81.8531 102.711 81.8251C100.837 81.7931 100.471 84.2802 100.503 86.43C100.348 86.4308 100.193 86.4336 100.037 86.4391C99.5089 84.061 98.4849 81.103 96.7385 81.8928C95.8596 82.2906 95.8908 83.1436 96.3514 84.13C95.5258 83.4965 94.7086 83.2774 94.0595 83.9482C93.0707 84.9712 94.2866 86.1846 95.8936 87.1994C94.7554 87.6127 93.6794 88.211 92.7294 89.0408C87.2729 93.8055 93.2222 104.596 93.2222 104.596L108.8 104.197C113.681 96.4267 111.327 90.9625 109.56 89.0412Z" fill="black"/>
<path d="M93.6717 163.312L84.3682 164.484C78.2508 165.255 72.7215 161.729 72.0808 156.648L68.5419 128.57C67.9011 123.489 70.5789 119.484 76.7296 119.232C80.3744 119.082 86.4568 118.279 92.9995 116.102C98.8009 114.171 99.4502 119.512 100.091 124.594L103.63 152.671C104.27 157.752 99.7893 162.54 93.6717 163.312Z" fill="#3E4046"/>
<path d="M81.3691 276.973C81.3691 276.973 81.3691 273.981 81.7956 272.985C82.2221 271.99 83.7854 267.94 83.7854 267.94H89.8972C89.8972 267.94 91.034 271.635 91.1052 272.843C91.1765 274.051 91.1052 276.972 91.1052 276.972H81.3691V276.973Z" fill="#334466"/>
<path d="M120.174 276.973C120.174 276.973 120.174 273.981 119.748 272.985C119.321 271.99 117.758 267.94 117.758 267.94H111.646C111.646 267.94 110.509 271.635 110.438 272.843C110.367 274.051 110.438 276.972 110.438 276.972H120.174V276.973Z" fill="#334466"/>
<path d="M95.6887 109.036C95.6887 109.036 95.4734 115.699 94.6206 118.683L87.8716 123.391L113.277 127.193L107.219 118.822C107.219 118.822 105.389 109.889 106.349 106.584C107.308 103.28 95.6887 109.036 95.6887 109.036Z" fill="#B56F40"/>
<path d="M95.6519 109.956C95.6521 109.954 97.6612 114.792 101.445 114.686C105.23 114.579 106.091 110.3 106.091 110.3L95.6519 109.956Z" fill="#99592E"/>
<path d="M101.011 112.817C98.2692 112.769 93.2227 109.118 93.2227 104.596V97.5402C93.2227 95.8893 94.374 94.5386 95.7809 94.5386H106.242C107.649 94.5386 108.8 95.8893 108.8 97.5402V104.197C108.8 108.938 104.156 112.873 101.011 112.817Z" fill="#B56F40"/>
<path d="M82.1349 173.354C82.1349 173.354 83.2046 206.006 81.6054 224.637C80.0067 243.267 81.6173 269.196 81.6173 269.196C81.6173 269.196 86.7307 272.015 92.274 269.196C92.274 269.196 98.3533 233.203 98.3145 224.637C98.2737 215.514 104.931 174.777 104.931 174.777L82.1349 173.354Z" fill="#6C5035"/>
<path d="M119.953 269.195C119.953 269.195 114.84 272.015 109.297 269.195C109.297 269.195 103.218 233.203 103.257 224.636C103.274 220.784 102.097 211.29 100.73 201.611C98.8608 188.37 96.6392 174.778 96.6392 174.778L120.319 173.298C120.319 173.298 118.366 206.007 119.965 224.636C121.564 243.268 119.953 269.195 119.953 269.195Z" fill="#6C5035"/>
<path d="M115.856 120.402L115.856 120.416C112.782 119.642 109.891 119.133 107.219 118.822C104.861 121.954 103.168 122.681 101.013 123.533C97.544 123.054 94.6211 118.781 94.6211 118.683C89.5854 119.199 86.7349 120.259 86.7349 120.259C84.8183 121.062 82.3024 136.035 81.9102 144.352C81.8611 145.397 81.8442 146.335 81.8675 147.128C82.0721 154.262 82.3601 161.195 81.4411 168.874C80.2321 178.965 82.279 178.786 82.279 178.786C82.279 178.786 85.0334 179.325 88.8755 179.835C92.3504 180.299 96.7146 180.741 100.731 180.741C109.942 180.741 120.036 178.786 120.036 178.786C122.942 178.822 119.222 160.704 118.678 149.803C118.552 147.272 118.435 144.961 118.326 142.849C121.815 145.856 132.086 151.335 132.319 152.035C132.319 152.035 130.078 156.125 129.397 158.306C126.783 166.678 122.286 172.213 122.286 172.213C122.898 174.535 122.727 175.564 122.727 175.564C129.839 169.976 134.425 165.222 137.352 161.576C141.467 156.449 142.311 153.509 142.311 153.509C126.475 121.274 115.856 120.402 115.856 120.402Z" fill="#9AA863"/>
<path d="M88.8754 179.835C85.0335 179.326 82.2789 178.786 82.2789 178.786C82.2789 178.786 80.2322 178.965 81.4411 168.875C82.36 161.195 82.072 154.262 81.8674 147.128C81.8441 146.336 81.8611 145.397 81.9101 144.353C82.4986 145.295 89.0564 155.887 90.8217 163.758C92.1075 169.499 90.1694 176.262 88.8754 179.835Z" fill="#578E9B"/>
<path d="M103.257 224.636C103.275 220.784 102.098 211.29 100.731 201.611C102.149 195.829 105.603 190.265 105.603 190.265C109.973 202.523 103.257 224.636 103.257 224.636Z" fill="#E58638"/>
<path d="M122.286 172.214C122.286 172.214 118.448 168.661 116.885 170.651C115.322 172.64 115.037 175.767 116.246 175.554C117.454 175.341 119.941 174.204 120.296 174.772C120.652 175.341 122.244 176.427 122.727 175.564C123.21 174.701 122.286 172.214 122.286 172.214Z" fill="#B56F40"/>
<path d="M122.286 172.214C122.897 174.536 122.726 175.565 122.726 175.565C129.838 169.977 134.424 165.222 137.351 161.577C135.144 161.413 133.104 160.92 129.397 158.306C126.336 167.644 122.286 172.214 122.286 172.214Z" fill="#B56F40"/>
<path d="M131.432 151.313C130.863 150.84 121.742 145.817 118.288 142.818C118.288 142.818 121.735 140.234 123.867 144.001C125.999 147.768 131.432 151.313 131.432 151.313Z" fill="#578E9B"/>
<path d="M142.311 153.509C142.311 153.509 141.467 156.45 137.352 161.577C132.589 161.51 142.311 153.509 142.311 153.509Z" fill="#578E9B"/>
<path d="M93.2228 100.402C93.2228 100.402 95.1258 94.592 101.362 95.4981C107.598 96.4043 108.138 97.7367 108.801 99.2823C109.463 100.828 110.742 93.6325 110.742 93.6325L103.387 91.4473C103.387 91.4473 94.4861 92.4601 93.8465 93.9523C93.207 95.4448 93.207 95.4448 93.207 95.4448L93.2228 100.402Z" fill="black"/>
<path d="M81.9697 162.297L82.0766 157.345C89.1336 151.986 92.0044 145.635 92.2764 134.651C92.4824 126.322 89.6843 119.53 89.6646 119.462C89.6646 119.462 90.9132 119.162 91.3381 119.089C91.7969 119.01 93.2006 118.849 93.2006 118.849C93.286 119.14 95.1453 125.911 94.9418 134.642C94.669 146.346 89.6123 156.494 81.9697 162.297Z" fill="#3E4046"/>
<path d="M101.535 160.864C99.1516 161.222 86.9378 164.057 78.233 165.156C73.3262 165.775 69.5344 165.844 69.2415 164.608C68.4318 161.18 71.1865 139.337 75.5646 130.546C79.9424 121.753 88.0567 119.854 88.0567 119.854L90.3649 133.774L78.631 157.144L81.4884 157.195L101.097 157.544L101.535 160.864Z" fill="#9AA863"/>
<path d="M107.684 162.108H103.27C102.735 162.108 102.298 161.67 102.298 161.136V153.151C102.298 152.616 102.736 152.179 103.27 152.179H107.684C108.219 152.179 108.656 152.616 108.656 153.151V161.136C108.656 161.67 108.219 162.108 107.684 162.108Z" fill="#334466"/>
<path d="M107.684 162.907H103.27C102.735 162.907 102.298 162.47 102.298 161.935V153.95C102.298 153.416 102.736 152.979 103.27 152.979H107.684C108.219 152.979 108.656 153.416 108.656 153.95V161.935C108.656 162.47 108.219 162.907 107.684 162.907Z" fill="#3E4046"/>
<path d="M98.8042 158.311C98.8042 158.311 105.255 153.866 107.37 155.409C109.486 156.952 109.654 160.632 100.883 160.936L98.8042 158.311Z" fill="#B56F40"/>
<path d="M101.535 160.864C99.1514 161.222 86.9377 164.057 78.2329 165.156C78.9954 161.442 80.1944 158.915 81.4878 157.195L101.096 157.544L101.535 160.864Z" fill="#B56F40"/>
<path d="M107.847 101.036C107.517 100.633 106.972 100.401 106.352 100.401H103.212C102.615 100.401 102.198 100.573 101.973 100.912C101.868 101.069 101.815 101.249 101.796 101.432C101.269 101.301 100.756 101.368 100.4 101.457C100.382 101.264 100.33 101.076 100.221 100.912C99.9952 100.573 99.5777 100.401 98.9808 100.401H95.8404C95.2212 100.401 94.6762 100.633 94.3456 101.036C94.0458 101.403 93.9445 101.88 94.0531 102.418C94.4105 104.193 96.4542 104.42 97.4753 104.42C97.7904 104.42 98.0081 104.398 98.0488 104.394C99.0044 104.391 99.6773 103.846 100.166 102.678C100.249 102.479 100.382 102.104 100.404 101.714C100.743 101.623 101.265 101.542 101.788 101.686C101.804 102.086 101.942 102.474 102.027 102.679C102.516 103.846 103.189 104.392 104.144 104.394C104.185 104.398 104.403 104.42 104.718 104.42C105.739 104.42 107.783 104.193 108.14 102.418C108.248 101.881 108.147 101.403 107.847 101.036ZM99.9755 102.599C99.522 103.682 98.9079 104.187 98.0431 104.187L98.0307 104.188C98.0221 104.189 97.1762 104.287 96.2885 104.106C95.1228 103.869 94.4389 103.287 94.2552 102.377C94.1596 101.902 94.246 101.484 94.5054 101.167C94.7965 100.812 95.283 100.608 95.8402 100.608H98.9806C99.5043 100.608 99.8635 100.749 100.048 101.026C100.143 101.169 100.185 101.34 100.196 101.515C100.036 101.566 99.9341 101.611 99.9204 101.617C99.8584 101.645 99.831 101.719 99.8594 101.781C99.8802 101.826 99.9251 101.853 99.9719 101.853C99.989 101.853 100.006 101.849 100.023 101.842C100.026 101.84 100.088 101.813 100.191 101.778C100.158 102.129 100.034 102.46 99.9755 102.599ZM107.938 102.377C107.754 103.287 107.07 103.869 105.904 104.106C105.017 104.287 104.171 104.189 104.162 104.188L104.15 104.187C103.285 104.187 102.671 103.682 102.217 102.599C102.158 102.457 102.031 102.116 102 101.757C102.06 101.781 102.12 101.808 102.179 101.839C102.239 101.871 102.314 101.848 102.346 101.788C102.378 101.727 102.355 101.653 102.295 101.62C102.197 101.568 102.098 101.529 101.998 101.493C102.011 101.326 102.053 101.163 102.145 101.026C102.329 100.749 102.688 100.608 103.212 100.608H106.352C106.91 100.608 107.396 100.812 107.687 101.167C107.947 101.484 108.033 101.902 107.938 102.377Z" fill="black"/>
<path d="M98.5029 108.256C98.5029 108.256 101.953 107.88 103.559 108.256C103.559 108.256 102.705 109.657 101.304 109.657C99.9035 109.657 98.8444 109.144 98.5029 108.256Z" fill="#FFF0E6"/>
<path d="M402.391 164.59C393.694 162.377 384.134 148.884 384.134 148.884L386.583 146.76C389.118 149.749 399.66 154.897 399.66 154.897C399.603 152.162 399.675 149.667 399.847 147.396C401.017 131.963 406.835 126.821 408.423 125.692C408.679 125.509 408.827 125.433 408.827 125.433C408.827 125.433 408.833 125.545 408.842 125.757C408.865 126.216 408.907 127.14 408.95 128.408C409.273 137.854 409.658 166.441 402.391 164.59Z" fill="#D9935C"/>
<path d="M386.583 146.76C386.546 146.396 386.301 141.093 385.248 140.084C384.195 139.075 382.115 137.7 381.517 137.811C380.92 137.922 378.89 141.298 379.848 143.624C380.807 145.949 384.134 148.884 384.134 148.884L386.583 146.76Z" fill="#D9935C"/>
<path d="M388.744 147.377L383.017 147.617C382.827 147.624 382.666 147.477 382.658 147.287L382.201 136.365C382.194 136.175 382.341 136.015 382.531 136.007L388.259 135.767C388.449 135.759 388.61 135.907 388.617 136.097L389.074 147.019C389.082 147.208 388.935 147.369 388.744 147.377Z" fill="#F1A34F"/>
<path d="M387.256 147.439L382.061 147.656C381.724 147.67 381.439 147.409 381.425 147.071L380.99 136.682C380.976 136.345 381.238 136.061 381.575 136.046L386.77 135.829C387.108 135.815 387.392 136.077 387.406 136.414L387.841 146.803C387.855 147.14 387.593 147.425 387.256 147.439Z" fill="#D86713"/>
<path d="M381.083 138.216C381.083 138.216 382.644 136.473 384.206 137.805C385.767 139.137 384.102 141.982 382.747 142.76C381.393 143.537 380.958 143.943 380.958 143.943L381.083 138.216Z" fill="#D9935C"/>
<path d="M421.329 254.32C420.799 256.427 420.216 258.433 419.622 260.299C419.495 260.7 419.37 261.093 419.242 261.478C419.178 261.67 419.114 261.859 419.053 262.045C418.927 262.415 418.804 262.778 418.681 263.132C418.521 263.594 418.36 264.044 418.202 264.48C418.085 264.803 417.968 265.12 417.854 265.43C416.09 270.16 414.613 273.157 414.613 273.157L411.099 272.915C411.099 272.915 412.418 266.639 412.682 257.65C412.691 257.329 412.7 257.005 412.706 256.678C412.719 255.981 412.728 255.271 412.728 254.545C412.728 254.248 412.726 253.947 412.724 253.643C412.653 245.901 411.695 236.751 408.636 228.014C406.149 220.912 404.346 214.266 403.042 208.261C398.833 188.875 399.822 176.139 399.822 176.139L419.591 178.452L420.513 178.56C420.596 187.639 420.829 199.967 421.034 209.605C421.069 211.278 421.102 212.87 421.135 214.35C421.271 220.538 421.374 224.769 421.374 224.769C425.177 232.953 423.796 244.506 421.329 254.32Z" fill="#CB7D45"/>
<path d="M415.669 108.264C415.669 108.264 420.346 112.246 416.058 116.829C416.058 116.829 419.631 117.18 420.841 116.19C420.841 116.19 420.603 116.673 420.383 116.89C420.383 116.89 424.378 117.033 426.027 115.787C427.676 114.541 426.616 94.1016 415.528 96.3868C415.528 96.3868 406.13 95.6773 407.006 106.552C407.881 117.426 404.333 117.426 404.333 117.426C404.333 117.426 405.32 117.913 405.796 117.913C405.796 117.913 406.493 117.647 406.63 117.262C406.63 117.262 406.493 117.867 406.314 118.059C406.314 118.059 410.144 118.422 412.057 116.976C413.969 115.531 416.215 110.507 415.669 108.264Z" fill="#233862"/>
<path d="M430.762 173.92C427.026 165.542 425.239 163.173 425.176 160.536C425.127 158.451 426.155 156.202 428.151 150.687C428.621 149.387 428.946 148.051 429.146 146.699C430.725 136.067 424.576 124.572 420.754 123.789C419.691 123.508 417.888 119.667 417.911 113.479L417.432 113.573L409.385 115.167C409.385 115.167 409.568 117.699 409.574 120.085C409.579 122.073 409.471 124.096 409.021 124.333C408.442 124.386 407.915 124.491 407.915 124.491C407.915 124.491 401.105 129.274 400.665 135.761C400.078 144.426 406.187 154.698 400.769 172.016C395.237 189.704 432.826 178.55 430.762 173.92Z" fill="#D9935C"/>
<path d="M409.385 115.167C409.385 115.167 409.569 117.699 409.574 120.085C414.077 119.958 416.457 115.85 417.433 113.573L409.385 115.167Z" fill="#CB7D45"/>
<path d="M418.263 112.697C418.263 112.697 420.623 108.969 421.19 105.781C421.594 103.504 420.435 95.0674 411.956 96.2823C411.956 96.2823 409.493 96.525 407.179 98.0885C405.338 99.3316 402.681 102.016 405.652 109.378L406.423 111.866L418.263 112.697Z" fill="#233862"/>
<path d="M407.881 117.426C407.881 117.426 418.535 117.602 418.542 110.965C418.55 104.329 419.93 99.8817 413.128 99.4888C406.326 99.0962 405.001 101.627 404.46 103.842C403.919 106.056 405.11 117.209 407.881 117.426Z" fill="#D9935C"/>
<path d="M408.275 99.3265C408.275 99.3265 411.192 107.112 415.669 108.263C420.146 109.415 422.088 108.215 422.088 108.215C422.088 108.215 418.654 105.487 417.941 100.726C417.941 100.726 410.476 95.6206 408.275 99.3265Z" fill="#233862"/>
<path d="M408.999 99.9585C408.999 99.9585 406.821 101.697 406.289 103.387C405.758 105.077 405.519 108.556 404.505 108.438C404.505 108.438 402.308 103.145 404.778 100.152C407.396 96.9774 408.999 99.9585 408.999 99.9585Z" fill="#233862"/>
<path d="M444.618 182.82L441.42 183.779C441.42 183.779 430.869 166.273 429.909 161.718C429.597 160.235 428.829 157.267 427.934 153.943C426.081 147.057 423.69 138.632 423.69 138.632L422.903 135.221L420.217 123.59C420.217 123.59 425.36 124.115 428.368 125.373C429.364 125.788 430.124 126.284 430.389 126.867C432.599 131.725 434.805 143.988 436.356 152.736C437.22 157.611 437.879 161.396 438.223 162.197C439.183 164.435 442.114 176.745 444.618 182.82Z" fill="#D9935C"/>
<path d="M408.594 100.222C408.594 100.222 410.672 108.375 416.321 110.986C416.321 110.986 410.672 105.977 410.192 100.595C409.713 95.2127 408.594 100.222 408.594 100.222Z" fill="#233862"/>
<path d="M432.669 252.618C431.533 264.748 426.528 272.594 426.528 272.594L424.819 274.148C424.819 274.148 423.262 265.267 422.138 255.099C421.068 245.434 419.599 235.207 417.938 232.084C415.456 227.42 413.626 217.881 412.309 207.803C410.132 191.127 409.36 172.969 409.36 172.969L429.404 171.976C431.42 175.364 432.298 180.923 432.507 187.243C432.726 193.888 432.203 201.376 431.477 208.067C430.464 217.435 429.052 225.243 428.724 226.998C428.724 227 428.724 227.002 428.722 227.007C428.678 227.238 428.746 227.469 428.854 227.677C432.843 235.572 433.419 244.603 432.669 252.618Z" fill="#D9935C"/>
<path d="M409.279 146.068C408.828 157.078 407.181 167.98 402.387 167.279C396.512 166.421 394.981 160.937 394.669 156.86C394.475 154.322 394.755 152.33 394.755 152.33C394.755 152.33 397.646 152.317 398.115 151.886C400.336 149.834 399.676 129.714 400.775 127.625C401.875 125.536 409.008 124.194 409.008 124.194C409.008 124.194 409.727 135.185 409.279 146.068Z" fill="#EE9849"/>
<path d="M409.279 146.068C408.828 157.078 407.181 167.98 402.387 167.279C396.512 166.421 394.981 160.937 394.669 156.86C396.111 156.787 398.651 156.436 399.661 154.896C401.105 152.693 405.613 138.51 405.613 138.51C405.613 138.51 407.386 141.694 409.279 146.068Z" fill="#E58638"/>
<path d="M421.329 254.32C420.799 256.427 420.216 258.433 419.622 260.3C419.495 260.7 419.369 261.093 419.242 261.478C419.178 261.67 419.114 261.859 419.052 262.045C418.927 262.415 418.804 262.778 418.681 263.132C418.52 263.594 418.36 264.045 418.201 264.48C418.085 264.803 417.968 265.12 417.854 265.43C416.09 270.16 414.612 273.157 414.612 273.157L411.099 272.915C411.099 272.915 412.418 266.639 412.682 257.65C412.691 257.329 412.699 257.005 412.706 256.678C412.719 255.981 412.728 255.271 412.728 254.545C412.728 254.248 412.726 253.947 412.724 253.643C412.653 245.901 411.695 236.751 408.636 228.014C406.148 220.912 404.345 214.266 403.042 208.261C405.131 208.692 406.97 208.252 412.308 207.804C412.869 207.757 415.551 211.078 418.201 215.474C418.337 221.661 421.374 224.769 421.374 224.769C425.177 232.953 423.796 244.506 421.329 254.32Z" fill="#233862"/>
<path d="M432.669 252.618C431.532 264.748 426.527 272.594 426.527 272.594L424.819 274.148C424.819 274.148 423.262 265.267 422.138 255.099C421.067 245.434 419.599 235.207 417.938 232.084C415.456 227.42 413.626 217.881 412.309 207.803C414.154 208.571 420.432 210.565 431.477 208.067C430.464 217.435 429.052 225.244 428.724 226.998C428.724 227.001 428.724 227.003 428.722 227.007C428.678 227.238 428.746 227.469 428.854 227.678C432.843 235.572 433.419 244.603 432.669 252.618Z" fill="#21335F"/>
<path d="M436.509 210.269C436.509 210.269 432.315 212.218 426.138 213.503C418.489 215.094 407.796 215.668 398.246 210.269C398.246 210.269 397.459 188.891 399.722 177.748C401.985 166.601 403.042 161.269 403.042 161.269C403.042 161.269 412.108 164.689 421.315 162.037C422.608 161.667 423.904 161.174 425.176 160.536C425.176 160.536 430.856 178.676 432.418 186.449C433.979 194.223 436.509 210.269 436.509 210.269Z" fill="#2B478B"/>
<path d="M436.508 207.407C436.508 207.407 432.315 209.244 426.137 210.455C414.809 201.348 420.333 163.023 420.333 163.023C420.669 162.636 420.997 162.279 421.315 161.951C422.608 161.602 423.903 161.137 425.176 160.535C425.176 160.535 429.303 166.785 430.864 174.111C432.426 181.437 436.508 207.407 436.508 207.407Z" fill="#233862"/>
<path d="M445.782 166.547C445.782 169.313 442.96 171.013 439.932 171.839C437.021 172.636 433.92 172.624 432.951 171.976C431.277 170.854 428.551 158.386 427.754 154.591C427.612 153.903 427.53 153.5 427.53 153.5C427.53 153.5 425.355 158.69 425.287 159.173C425.256 159.391 425.23 159.69 425.21 159.954C425.188 160.273 425.175 160.537 425.175 160.537C425.175 160.537 413.373 166.494 403.042 161.023C403.042 161.023 398.842 136.751 400.665 132.573C401.571 130.497 406.297 126.213 408.188 124.366C408.612 123.95 408.57 123.128 408.405 122.376C408.269 121.74 408.841 121.182 409.47 121.345C410.686 121.661 412.874 121.607 415.218 120.837C416.386 120.456 417.591 119.898 418.732 119.119C419.064 118.893 419.515 119.102 419.565 119.5C419.743 120.947 420.181 123.59 420.979 123.59C422.079 123.583 429.582 124.505 430.131 125.433C430.323 125.756 432.273 130.169 434.736 136.016C434.736 136.016 434.738 136.021 434.74 136.031C439.363 147 445.782 163.009 445.782 166.547Z" fill="#928619"/>
<path d="M427.53 153.5C427.53 153.5 425.355 158.69 425.287 159.173C425.256 159.391 425.23 159.69 425.21 159.954C424.159 160.812 422.888 161.462 421.593 161.856C417.914 162.971 416.315 155.919 416.535 152.401C416.755 148.882 421.958 138.84 423.69 138.631C425.421 138.424 427.53 153.5 427.53 153.5Z" fill="#E58638"/>
<path d="M427.755 154.591C427.612 153.903 427.53 153.5 427.53 153.5C427.645 153.872 427.719 154.235 427.755 154.591Z" fill="#E58638"/>
<path d="M412.669 163.698C405.953 163.698 403.185 161.387 402.98 161.23L402.545 158.067C402.61 158.115 411.621 163.525 425.567 158.343L425.271 160.739C419.908 162.732 416.157 163.698 412.669 163.698Z" fill="#B64C41"/>
<path d="M445.782 166.547C445.782 169.313 442.961 171.013 439.933 171.839C444.106 166.87 434.974 136.799 434.741 136.031C439.363 147 445.782 163.009 445.782 166.547Z" fill="#E58638"/>
<path d="M420.979 123.59C420.979 123.59 415.361 127.148 411.11 126.305C411.11 126.305 410.09 125.661 411.498 125.012C412.819 124.406 415.893 122.609 415.218 120.836C416.386 120.456 417.591 119.897 418.732 119.119C419.064 118.893 419.515 119.102 419.565 119.5C419.744 120.947 420.181 123.59 420.979 123.59Z" fill="#E58638"/>
<path d="M416.636 276.103H414.393C413.642 275.985 413.087 275.768 412.316 275.667C411.146 275.514 410.607 275.993 410.5 276.103C410.486 276.118 410.48 276.126 410.48 276.126H400.951C400.711 275.784 400.942 274.991 401.167 274.407C401.319 274.011 401.65 273.71 402.059 273.592C403.07 273.299 405.062 273.039 406.886 271.387C407.912 270.46 411.842 267.977 411.842 267.977L411.862 267.973C411.949 267.974 412.36 268.101 414.147 269.61C415.071 270.388 416.645 268.51 416.645 268.51C416.645 268.51 416.941 268.754 417.162 269.21C417.339 269.57 417.469 270.064 417.367 270.673C417.224 271.531 417.683 273.127 418.049 274.206C418.271 274.86 418.459 275.324 418.459 275.324C418.459 275.324 418.566 275.862 416.636 276.103Z" fill="#233862"/>
<path d="M417.162 269.21C416.627 269.588 415.496 270.331 414.747 270.428C413.734 270.561 411.842 267.978 411.842 267.978L411.862 267.973C411.949 267.974 412.36 268.101 414.147 269.61C415.071 270.389 416.645 268.51 416.645 268.51C416.645 268.51 416.941 268.755 417.162 269.21Z" fill="#466AA5"/>
<path d="M416.636 276.104H414.393C413.642 275.985 413.087 275.768 412.316 275.667C411.146 275.514 410.607 275.993 410.5 276.104C410.486 276.118 410.48 276.126 410.48 276.126H400.951C400.711 275.784 400.942 274.991 401.167 274.407C401.457 274.15 401.538 275.525 401.698 275.744C401.858 275.963 409.471 275.824 409.911 275.504C410.35 275.184 411.669 274.625 413.508 275.064C415.108 275.447 417.466 274.467 418.049 274.206C418.272 274.86 418.459 275.324 418.459 275.324C418.459 275.324 418.566 275.862 416.636 276.104Z" fill="#466AA5"/>
<path d="M428.605 276.103H426.362C425.611 275.985 425.056 275.768 424.286 275.667C423.115 275.514 422.577 275.993 422.469 276.103C422.455 276.118 422.449 276.126 422.449 276.126H412.921C412.681 275.784 412.911 274.991 413.137 274.407C413.288 274.011 413.619 273.71 414.029 273.592C415.039 273.299 417.031 273.039 418.855 271.387C419.881 270.46 423.811 267.977 423.811 267.977L423.832 267.973C423.918 267.974 424.329 268.101 426.116 269.61C427.04 270.388 428.615 268.51 428.615 268.51C428.615 268.51 428.91 268.754 429.131 269.21C429.308 269.57 429.438 270.064 429.336 270.673C429.193 271.531 429.652 273.127 430.018 274.206C430.241 274.86 430.428 275.324 430.428 275.324C430.428 275.324 430.535 275.862 428.605 276.103Z" fill="#233862"/>
<path d="M429.132 269.21C428.596 269.588 427.466 270.331 426.716 270.428C425.704 270.561 423.812 267.978 423.812 267.978L423.832 267.973C423.918 267.974 424.329 268.101 426.116 269.61C427.04 270.389 428.615 268.51 428.615 268.51C428.615 268.51 428.911 268.755 429.132 269.21Z" fill="#466AA5"/>
<path d="M428.605 276.104H426.362C425.611 275.985 425.056 275.768 424.286 275.667C423.115 275.514 422.577 275.993 422.469 276.104C422.455 276.118 422.449 276.126 422.449 276.126H412.921C412.681 275.784 412.911 274.991 413.137 274.407C413.426 274.15 413.508 275.525 413.667 275.744C413.827 275.963 421.44 275.824 421.88 275.504C422.319 275.184 423.638 274.625 425.477 275.064C427.077 275.447 429.435 274.467 430.019 274.206C430.241 274.86 430.428 275.324 430.428 275.324C430.428 275.324 430.535 275.862 428.605 276.104Z" fill="#466AA5"/>
<path d="M452.543 196.45C452.321 195.336 451.538 194.43 450.474 194.035C448.747 193.395 445.92 192.817 442.444 193.839C436.576 195.564 436.002 199.171 436.39 201.765C436.778 204.359 435.628 208.493 435.797 211.434C435.966 214.376 436.808 221.765 441.153 221.377C445.497 220.989 459.501 217.226 459.501 217.226C459.501 217.226 461.92 212.621 456.951 205.952C454.002 201.996 452.93 198.392 452.543 196.45Z" fill="#D37129"/>
<path d="M449.854 193.05L448.692 193.155C448.692 193.153 448.559 192.352 448.025 191.847C447.615 191.46 447.048 191.319 446.341 191.434C445.672 191.541 445.19 191.849 444.947 192.343C444.603 193.038 444.793 193.934 444.795 193.944L443.663 194.206C443.649 194.145 443.321 192.688 443.915 191.465C444.323 190.62 445.052 190.133 446.061 189.943C447.102 189.776 447.982 190.031 448.678 190.699C449.638 191.621 449.846 192.993 449.854 193.05Z" fill="#D37129"/>
<path d="M462.38 216.569C462.38 216.569 448.375 220.341 444.027 220.721C439.683 221.117 438.837 213.727 438.677 210.776C438.506 207.842 439.652 203.705 439.27 201.106C439.191 200.615 439.147 200.069 439.182 199.521C439.294 197.207 440.59 194.578 445.315 193.191C448.801 192.164 451.619 192.75 453.353 193.39C454.412 193.786 455.204 194.688 455.424 195.798C455.475 196.025 455.522 196.301 455.583 196.572C456.082 198.637 457.236 201.841 459.832 205.305C464.803 211.967 462.38 216.569 462.38 216.569Z" fill="#F1A34F"/>
<path opacity="0.4" d="M440.792 211.396L449.233 209.486C449.233 209.486 451.197 215.531 447.208 216.632C443.219 217.733 441.564 215.393 440.792 211.396Z" fill="#D86713"/>
<path d="M440.792 211.396C440.792 211.396 442.74 213.273 445.371 212.612C448.003 211.95 449.233 209.486 449.233 209.486L440.792 211.396Z" fill="#D37129"/>
<path opacity="0.4" d="M450.947 209.099L459.388 207.189C459.388 207.189 461.352 213.234 457.363 214.335C453.374 215.436 451.719 213.096 450.947 209.099Z" fill="#D86713"/>
<path d="M450.947 209.099C450.947 209.099 452.894 210.976 455.526 210.314C458.157 209.653 459.388 207.189 459.388 207.189L450.947 209.099Z" fill="#D37129"/>
<path opacity="0.4" d="M455.424 195.798C455.475 196.025 455.522 196.301 455.583 196.572C454.467 198.875 452.352 201.817 448.772 202.5C442.683 203.687 439.182 199.521 439.182 199.521C439.294 197.207 440.59 194.578 445.314 193.191C448.801 192.164 451.619 192.75 453.353 193.39C454.412 193.786 455.204 194.688 455.424 195.798Z" fill="#D86713"/>
<path d="M448.858 203.776C448.477 203.862 448.094 203.621 448.008 203.24L447.866 202.61C447.779 202.228 448.021 201.846 448.402 201.76C448.783 201.674 449.165 201.915 449.251 202.296L449.394 202.926C449.48 203.307 449.239 203.69 448.858 203.776Z" fill="#D86713"/>
<path d="M444.391 182.288C444.391 182.288 445.363 184.579 446.376 185.219C447.389 185.858 448.351 187.393 448.561 188.629C448.947 190.898 447.208 192.306 445.929 192.306C444.65 192.306 443.427 190.562 442.675 186.398C442.634 186.168 441.42 183.78 441.42 183.78L444.391 182.288Z" fill="#D9935C"/>
<path d="M312.683 182.563L313.859 182.633C313.849 182.607 314.316 162.097 316.116 153.799C319.468 138.339 328.228 126.236 328.325 126.132L326.22 125.458C326.116 125.57 324.454 128.143 322.101 132.891C319.933 137.267 316.447 144.556 314.908 153.045C313.388 161.428 312.64 182.452 312.683 182.563Z" fill="#BC3F3F"/>
<path d="M333.935 96.1634C333.935 96.1634 326.249 94.5236 322.559 100.775C318.87 107.026 318.665 117.889 316.206 121.442C313.746 124.995 309.408 139.989 314.019 143.345C318.631 146.7 347.04 143.222 348.635 141.692C350.23 140.162 348.539 124.415 345.763 119.854C342.987 115.293 349.751 93.8402 333.935 96.1634Z" fill="#A53D38"/>
<path d="M345.385 164.59C354.082 162.377 363.642 148.885 363.642 148.885L361.194 146.761C358.658 149.749 348.117 154.898 348.117 154.898C348.173 152.162 348.102 149.667 347.929 147.397C346.76 131.963 340.941 126.821 339.353 125.693C339.097 125.509 338.95 125.433 338.95 125.433C338.95 125.433 338.944 125.545 338.935 125.757C338.912 126.216 338.87 127.14 338.826 128.408C338.503 137.854 338.118 166.441 345.385 164.59Z" fill="#E6B594"/>
<path d="M361.193 146.76C361.23 146.396 361.475 141.093 362.529 140.084C363.582 139.075 365.662 137.7 366.259 137.811C366.857 137.922 368.887 141.298 367.928 143.624C366.97 145.949 363.642 148.884 363.642 148.884L361.193 146.76Z" fill="#E6B594"/>
<path d="M326.448 254.32C326.978 256.427 327.561 258.433 328.155 260.299C328.282 260.7 328.407 261.093 328.535 261.478C328.599 261.67 328.663 261.859 328.724 262.045C328.85 262.415 328.973 262.778 329.096 263.132C329.256 263.594 329.417 264.044 329.575 264.48C329.692 264.803 329.808 265.12 329.923 265.43C331.687 270.16 333.164 273.157 333.164 273.157L336.678 272.915C336.678 272.915 335.359 266.639 335.095 257.65C335.086 257.329 335.077 257.005 335.071 256.678C335.058 255.981 335.049 255.271 335.049 254.545C335.049 254.248 335.051 253.947 335.053 253.643C335.123 245.901 336.082 236.751 339.141 228.014C341.628 220.912 343.431 214.266 344.735 208.261C348.944 188.875 347.955 176.139 347.955 176.139L328.186 178.452L327.265 178.56C327.181 187.639 326.948 199.967 326.743 209.605C326.708 211.278 326.675 212.87 326.642 214.35C326.506 220.538 326.402 224.769 326.402 224.769C322.6 232.953 323.981 244.506 326.448 254.32Z" fill="#E6B594"/>
<path d="M317.015 173.92C320.751 165.542 322.538 163.173 322.601 160.536C322.651 158.452 321.623 156.202 319.626 150.687C319.156 149.387 318.831 148.051 318.632 146.7C317.052 136.067 323.201 124.572 327.023 123.789C328.086 123.508 329.888 119.668 329.866 113.479L330.345 113.574L338.392 115.167C338.392 115.167 338.209 117.7 338.204 120.085C338.198 122.073 338.305 124.096 338.756 124.333C339.335 124.386 345.653 125.515 346.801 127.328C347.93 129.11 346.672 129.274 347.112 135.761C347.699 144.426 341.59 154.698 347.008 172.017C352.54 189.704 314.951 178.55 317.015 173.92Z" fill="#E6B594"/>
<path d="M338.392 115.167C338.392 115.167 338.208 117.699 338.203 120.085C333.7 119.958 331.32 115.85 330.345 113.573L338.392 115.167Z" fill="#4A4A4A"/>
<path d="M339.895 117.426C339.895 117.426 329.241 117.602 329.234 110.965C329.227 104.329 327.846 99.8819 334.649 99.4891C341.451 99.0964 342.775 101.627 343.316 103.842C343.858 106.056 342.667 117.209 339.895 117.426Z" fill="#E6B594"/>
<path d="M339.501 99.3267C339.501 99.3267 336.584 107.113 332.108 108.264C327.631 109.415 325.689 108.215 325.689 108.215C325.689 108.215 329.123 105.488 329.835 100.726C329.835 100.726 337.301 95.6209 339.501 99.3267Z" fill="#A53D38"/>
<path d="M338.778 99.9585C338.778 99.9585 340.957 101.697 341.488 103.387C342.019 105.077 342.258 108.556 343.272 108.438C343.272 108.438 345.47 103.145 343 100.152C340.381 96.9774 338.778 99.9585 338.778 99.9585Z" fill="#A53D38"/>
<path d="M303.159 182.82L306.357 183.779C306.357 183.779 316.908 166.273 317.867 161.718C318.18 160.235 318.947 157.267 319.843 153.943C321.695 147.057 324.086 138.632 324.086 138.632L324.874 135.221L327.559 123.59C327.559 123.59 322.417 124.115 319.409 125.373C318.413 125.788 317.653 126.284 317.388 126.867C315.178 131.725 312.972 143.988 311.421 152.736C310.557 157.611 309.898 161.396 309.554 162.197C308.594 164.435 305.663 176.745 303.159 182.82Z" fill="#E6B594"/>
<path d="M339.183 100.222C339.183 100.222 337.104 108.375 331.456 110.986C331.456 110.986 337.104 105.977 337.584 100.595C338.064 95.2127 339.183 100.222 339.183 100.222Z" fill="#A53D38"/>
<path d="M315.108 252.618C316.245 264.748 321.25 272.594 321.25 272.594L322.958 274.148C322.958 274.148 324.515 265.267 325.639 255.099C326.71 245.434 328.179 235.207 329.839 232.084C332.322 227.42 334.151 217.881 335.468 207.803C337.646 191.127 338.417 172.969 338.417 172.969L318.374 171.976C316.357 175.364 315.48 180.923 315.271 187.243C315.051 193.888 315.574 201.376 316.3 208.067C317.314 217.435 318.725 225.243 319.053 226.998C319.053 227 319.053 227.002 319.055 227.007C319.099 227.238 319.031 227.469 318.923 227.677C314.934 235.572 314.358 244.603 315.108 252.618Z" fill="#E6B594"/>
<path d="M353.108 156.861C352.796 160.938 351.265 166.422 345.391 167.279C343.312 167.582 341.826 165.707 340.771 162.585C339.391 158.506 338.752 152.304 338.498 146.067C338.254 140.16 338.354 134.218 338.498 130.023C340.908 129.75 345.331 127.709 346.688 127.2C346.727 127.241 346.766 127.284 346.801 127.328C346.829 127.36 346.856 127.395 346.88 127.43C346.928 127.496 346.967 127.559 347.001 127.625C347.588 128.738 347.674 134.983 347.965 140.878C348.217 146.037 348.627 150.927 349.662 151.886C350.131 152.317 353.021 152.331 353.021 152.331C353.021 152.331 353.302 154.323 353.108 156.861Z" fill="#E8D3AC"/>
<path d="M338.498 146.068C338.949 157.078 340.596 167.98 345.39 167.279C351.265 166.421 352.796 160.937 353.108 156.86C351.665 156.787 349.126 156.436 348.116 154.896C346.672 152.693 342.164 138.51 342.164 138.51C342.164 138.51 340.391 141.694 338.498 146.068Z" fill="#BDAC92"/>
<path d="M344.734 161.023C344.734 161.023 332.943 163.982 322.601 160.537C322.601 160.537 316.922 172.594 315.359 177.762C313.797 182.929 301.995 249.065 301.995 249.065C301.995 249.065 327.969 256.577 345.231 250.09C345.231 250.09 350.318 179.384 348.055 171.976C345.792 164.568 344.734 161.023 344.734 161.023Z" fill="#2B478B"/>
<path d="M347.964 140.832C347.102 149.356 344.734 160.918 344.734 160.918C343.429 161.608 342.098 162.115 340.77 162.475C331.609 164.964 322.602 160.433 322.602 160.433C322.602 160.433 322.588 160.17 322.565 159.851C322.547 159.587 322.52 159.291 322.49 159.072C322.422 158.59 320.247 153.416 320.247 153.416C320.247 153.416 320.165 153.819 320.022 154.505C319.226 158.288 316.498 170.718 314.826 171.838C313.856 172.483 310.755 172.494 307.845 171.701C304.815 170.877 301.995 169.181 301.995 166.425C301.995 162.895 308.412 146.936 313.036 136.001C313.039 135.989 313.041 135.985 313.041 135.985C315.502 130.155 316.932 126.099 318.815 125.646C318.815 125.646 331.481 130.801 338.497 130.01C340.907 129.738 345.331 127.703 346.687 127.196C346.726 127.237 346.765 127.28 346.8 127.323C346.829 127.356 346.855 127.39 346.88 127.425C346.907 127.463 346.931 127.5 346.954 127.538C347.982 129.052 347.819 131.565 347.872 132.523C347.975 134.397 348.35 137.017 347.964 140.832Z" fill="#E8D3AC"/>
<path d="M320.247 153.5C320.247 153.5 322.421 158.69 322.489 159.174C322.52 159.391 322.547 159.69 322.566 159.954C323.617 160.812 324.888 161.463 326.184 161.856C329.862 162.971 331.461 155.919 331.241 152.401C331.021 148.882 325.819 138.84 324.086 138.631C322.355 138.424 320.247 153.5 320.247 153.5Z" fill="#BDAC92"/>
<path d="M320.022 154.591C320.166 153.903 320.247 153.5 320.247 153.5C320.132 153.872 320.058 154.235 320.022 154.591Z" fill="#372F28"/>
<path d="M335.211 163.272C341.927 163.272 344.591 161.387 344.796 161.23L345.231 158.067C345.166 158.115 336.155 163.526 322.21 158.343L322.506 160.74C327.868 162.733 331.723 163.272 335.211 163.272Z" fill="#163560"/>
<path d="M301.995 166.547C301.995 169.313 304.816 171.013 307.844 171.839C303.671 166.87 312.803 136.799 313.036 136.031C308.414 147 301.995 163.009 301.995 166.547Z" fill="#BDAC92"/>
<path d="M331.141 276.104H333.384C334.135 275.985 334.69 275.768 335.461 275.667C336.631 275.514 337.17 275.993 337.277 276.104C337.291 276.118 337.298 276.126 337.298 276.126H346.826C347.066 275.784 346.835 274.991 346.61 274.408C346.458 274.011 346.127 273.71 345.718 273.592C344.708 273.3 342.716 273.039 340.892 271.388C339.865 270.46 335.935 267.978 335.935 267.978L335.915 267.973C335.829 267.974 335.418 268.101 333.63 269.61C332.706 270.389 331.132 268.51 331.132 268.51C331.132 268.51 330.836 268.754 330.615 269.21C330.438 269.57 330.308 270.064 330.411 270.673C330.553 271.532 330.094 273.127 329.728 274.206C329.506 274.86 329.319 275.324 329.319 275.324C329.319 275.324 329.211 275.863 331.141 276.104Z" fill="#233862"/>
<path d="M330.615 269.211C331.151 269.588 332.281 270.331 333.031 270.429C334.043 270.561 335.936 267.978 335.936 267.978L335.915 267.973C335.829 267.975 335.418 268.101 333.63 269.61C332.706 270.389 331.132 268.51 331.132 268.51C331.132 268.51 330.836 268.755 330.615 269.211Z" fill="#466AA5"/>
<path d="M331.141 276.104H333.384C334.136 275.985 334.69 275.768 335.461 275.667C336.631 275.514 337.17 275.993 337.277 276.104C337.292 276.118 337.298 276.126 337.298 276.126H346.826C347.066 275.784 346.836 274.991 346.61 274.408C346.321 274.15 346.239 275.525 346.079 275.744C345.919 275.963 338.307 275.824 337.867 275.504C337.427 275.184 336.108 274.625 334.27 275.065C332.67 275.447 330.311 274.467 329.728 274.206C329.506 274.86 329.319 275.324 329.319 275.324C329.319 275.324 329.211 275.863 331.141 276.104Z" fill="#466AA5"/>
<path d="M319.171 276.104H321.414C322.165 275.986 322.72 275.768 323.491 275.667C324.661 275.514 325.2 275.994 325.307 276.104C325.321 276.118 325.328 276.126 325.328 276.126H334.856C335.096 275.784 334.865 274.991 334.64 274.408C334.488 274.011 334.157 273.711 333.748 273.592C332.738 273.3 330.745 273.039 328.921 271.388C327.895 270.46 323.965 267.978 323.965 267.978L323.945 267.973C323.859 267.975 323.448 268.101 321.66 269.61C320.736 270.389 319.162 268.51 319.162 268.51C319.162 268.51 318.866 268.755 318.645 269.211C318.468 269.57 318.338 270.064 318.441 270.673C318.583 271.532 318.124 273.128 317.758 274.206C317.536 274.86 317.349 275.324 317.349 275.324C317.349 275.324 317.241 275.863 319.171 276.104Z" fill="#233862"/>
<path d="M318.646 269.211C319.181 269.588 320.311 270.331 321.061 270.429C322.073 270.561 323.966 267.978 323.966 267.978L323.945 267.973C323.859 267.975 323.448 268.101 321.661 269.61C320.737 270.389 319.162 268.51 319.162 268.51C319.162 268.51 318.866 268.755 318.646 269.211Z" fill="#466AA5"/>
<path d="M319.171 276.104H321.414C322.166 275.985 322.72 275.768 323.491 275.667C324.661 275.514 325.2 275.993 325.307 276.104C325.321 276.118 325.328 276.126 325.328 276.126H334.856C335.096 275.784 334.865 274.991 334.64 274.408C334.351 274.15 334.269 275.525 334.11 275.744C333.95 275.963 326.337 275.824 325.897 275.504C325.457 275.184 324.138 274.625 322.3 275.065C320.7 275.447 318.341 274.467 317.758 274.206C317.536 274.86 317.349 275.324 317.349 275.324C317.349 275.324 317.242 275.863 319.171 276.104Z" fill="#466AA5"/>
<path d="M303.386 182.288C303.386 182.288 302.413 184.579 301.401 185.219C300.388 185.858 299.426 187.393 299.216 188.629C298.83 190.898 300.569 192.306 301.848 192.306C303.127 192.306 304.35 190.562 305.101 186.398C305.143 186.168 306.357 183.78 306.357 183.78L303.386 182.288Z" fill="#E6B594"/>
<path d="M366.03 134.937L365.88 136.474L365.409 141.315L365.108 144.416H358.926L358.547 141.315L357.952 136.474L357.764 134.937H366.03Z" fill="#887665"/>
<path d="M366.47 134.937H357.277L357.457 134.014H366.244L366.47 134.937Z" fill="#CEAE94"/>
<path d="M365.881 136.474L365.409 141.315H358.547L357.953 136.474H365.881Z" fill="#CEAE94"/>
<path d="M366.693 138.216C366.693 138.216 365.132 136.473 363.571 137.805C362.009 139.137 363.674 141.982 365.029 142.76C366.383 143.537 366.818 143.943 366.818 143.943L366.693 138.216Z" fill="#E6B594"/>
<path d="M331.262 182.657L330.088 182.569C330.101 182.544 332.386 162.021 331.715 153.5C330.465 137.625 323.406 124.37 323.324 124.253L325.5 123.864C325.588 123.99 326.89 126.781 328.585 131.835C330.148 136.493 332.626 144.234 333.013 152.91C333.396 161.478 331.32 182.553 331.262 182.657Z" fill="#BC3F3F"/>
<path d="M317.027 178.143C317.027 178.143 318.168 175.334 319.983 174.633L329.248 176.379C329.248 176.379 326.961 178.555 326.745 179.975L317.027 178.143Z" fill="#D2E4FF"/>
<path d="M328.659 193.997L312.823 191.013C312.079 190.872 311.589 190.155 311.73 189.411L313.708 178.913C313.848 178.169 314.565 177.679 315.309 177.82L331.145 180.804C331.889 180.944 332.379 181.661 332.238 182.405L330.26 192.903C330.12 193.647 329.403 194.137 328.659 193.997Z" fill="#912F2F"/>
<path d="M322.957 172.396L315.385 172.33L315.299 182.037L322.872 182.104L322.957 172.396Z" fill="#372F28"/>
<path d="M322.539 172.377L314.967 172.312L314.882 182.019L322.455 182.085L322.539 172.377Z" fill="#887665"/>
<path d="M327.139 178.178L321.125 173.576L315.225 181.285L321.239 185.887L327.139 178.178Z" fill="#578E9B"/>
<path d="M326.461 177.664L320.447 173.062L314.547 180.771L320.56 185.373L326.461 177.664Z" fill="#74ACBE"/>
<path d="M324.79 193.268L309.628 190.41C308.698 190.235 308.086 189.339 308.261 188.409L310.113 178.584C310.288 177.654 311.184 177.042 312.114 177.217L327.276 180.075C328.206 180.25 328.818 181.146 328.643 182.076L326.791 191.901C326.616 192.831 325.72 193.443 324.79 193.268Z" fill="#BC3F3F"/>
</svg>
